<?xml version="1.0" encoding="UTF-8" standalone="no"?>
<!-- Created with LibSL -->

<svg
   xmlns:dc="http://purl.org/dc/elements/1.1/"
   xmlns:cc="http://creativecommons.org/ns#"
   xmlns:rdf="http://www.w3.org/1999/02/22-rdf-syntax-ns#"
   xmlns:svg="http://www.w3.org/2000/svg"
   xmlns="http://www.w3.org/2000/svg"
   xmlns:sodipodi="http://sodipodi.sourceforge.net/DTD/sodipodi-0.dtd"
   xmlns:inkscape="http://www.inkscape.org/namespaces/inkscape"
   version="1.1"
   width="212.5mm"
   height="210.15mm"
   viewBox="1.15 -212.4 212.5 210.15"
   id="svg5"
   sodipodi:docname="catapulte_slice_0.svg"
   inkscape:version="0.92.3 (2405546, 2018-03-11)">
  <metadata
     id="metadata11">
    <rdf:RDF>
      <cc:Work
         rdf:about="">
        <dc:format>image/svg+xml</dc:format>
        <dc:type
           rdf:resource="http://purl.org/dc/dcmitype/StillImage" />
        <dc:title></dc:title>
      </cc:Work>
    </rdf:RDF>
  </metadata>
  <defs
     id="defs9" />
  <sodipodi:namedview
     pagecolor="#ffffff"
     bordercolor="#666666"
     borderopacity="1"
     objecttolerance="10"
     gridtolerance="10"
     guidetolerance="10"
     inkscape:pageopacity="0"
     inkscape:pageshadow="2"
     inkscape:window-width="1920"
     inkscape:window-height="1017"
     id="namedview7"
     showgrid="false"
     inkscape:zoom="0.84040785"
     inkscape:cx="467.50886"
     inkscape:cy="382.5331"
     inkscape:window-x="-8"
     inkscape:window-y="-8"
     inkscape:window-maximized="1"
     inkscape:current-layer="svg5" />
  <g
     id="layer1"
     style="fill:none;fill-opacity:1;stroke:#ff0000;stroke-opacity:1;stroke-width:0.2;stroke-miterlimit:4;stroke-dasharray:none">
    <path
       style="fill:none;fill-rule:nonzero;stroke:#ff0000;stroke-width:0.2;stroke-linecap:butt;stroke-linejoin:miter;stroke-opacity:1;fill-opacity:1;stroke-miterlimit:4;stroke-dasharray:none"
       d="M 1.15,-2.25 173,-2.25 173,-14.75 179.3,-14.75 179.3,-2.25 201.15,-2.25 201.15,-27.25 109.45,-27.25 93.65,-43.05 93.65,-137.25 68.65,-137.25 68.65,-41.3 54.6,-27.25 1.15,-27.25 Z M 1.15,-71.8 26.15,-71.8 26.15,-101.95 13.65,-101.95 13.65,-108.25 26.15,-108.25 26.15,-115.35 13.65,-115.35 13.65,-121.65 26.15,-121.65 26.15,-151.8 1.15,-151.8 Z M 13.65,-161.8 105.4,-161.8 121.15,-146.05 121.15,-51.8 146.15,-51.8 146.15,-147.75 160.2,-161.8 213.65,-161.8 213.65,-186.8 41.8,-186.8 41.8,-174.3 35.5,-174.3 35.5,-186.8 13.65,-186.8 Z M 27.15,-73.3 64.65,-73.3 64.65,-98.3 27.15,-98.3 27.15,-95.65 39.65,-95.65 39.65,-89.35 27.15,-89.35 27.15,-82.25 39.65,-82.25 39.65,-75.95 27.15,-75.95 Z M 27.15,-99.3 52.15,-99.3 52.15,-124.3 27.15,-124.3 27.15,-121.65 39.65,-121.65 39.65,-115.35 27.15,-115.35 27.15,-108.25 39.65,-108.25 39.65,-101.95 27.15,-101.95 Z M 38.65,-187.4 188.65,-187.4 188.65,-212.4 38.65,-212.4 Z M 50.05,-199.7 50.1,-200.3 50.3,-200.65 50.95,-201 51.55,-200.95 51.9,-200.75 52.25,-200.1 52.2,-199.5 52,-199.15 51.35,-198.8 50.75,-198.85 50.4,-199.05 Z M 62.55,-199.7 62.6,-200.3 62.8,-200.65 63.45,-201 64.05,-200.95 64.4,-200.75 64.75,-200.1 64.7,-199.5 64.5,-199.15 63.85,-198.8 63.25,-198.85 62.9,-199.05 Z M 80.05,-64.55 80.05,-65 80.25,-65.45 80.85,-65.85 81.7,-65.75 82.05,-65.45 82.25,-65 82.25,-64.55 82.1,-64.15 81.5,-63.7 81.05,-63.65 80.5,-63.85 80.2,-64.15 Z M 80.05,-77.05 80.05,-77.5 80.25,-77.95 80.85,-78.35 81.7,-78.25 82.05,-77.95 82.25,-77.5 82.25,-77.05 82.1,-76.65 81.5,-76.2 81.05,-76.15 80.5,-76.35 80.2,-76.65 Z M 80.05,-114.55 80.05,-115 80.25,-115.45 80.85,-115.85 81.7,-115.75 82.05,-115.45 82.25,-115 82.25,-114.55 82.1,-114.15 81.5,-113.7 81.05,-113.65 80.5,-113.85 80.2,-114.15 Z M 80.05,-127.05 80.05,-127.5 80.25,-127.95 80.85,-128.35 81.7,-128.25 82.05,-127.95 82.25,-127.5 82.25,-127.05 82.1,-126.65 81.5,-126.2 81.05,-126.15 80.5,-126.35 80.2,-126.65 Z M 132.55,-61.6 132.6,-62.2 132.8,-62.55 133.45,-62.9 134.05,-62.85 134.4,-62.65 134.75,-62 134.7,-61.4 134.5,-61.05 133.85,-60.7 133.25,-60.75 132.9,-60.95 Z M 132.55,-74.1 132.6,-74.7 132.8,-75.05 133.45,-75.4 134.05,-75.35 134.4,-75.15 134.75,-74.5 134.7,-73.9 134.5,-73.55 133.85,-73.2 133.25,-73.25 132.9,-73.45 Z M 132.55,-111.6 132.6,-112.2 132.8,-112.55 133.45,-112.9 134.05,-112.85 134.4,-112.65 134.75,-112 134.7,-111.4 134.5,-111.05 133.85,-110.7 133.25,-110.75 132.9,-110.95 Z M 132.55,-124.1 132.6,-124.7 132.8,-125.05 133.45,-125.4 134.05,-125.35 134.4,-125.15 134.75,-124.5 134.7,-123.9 134.5,-123.55 133.85,-123.2 133.25,-123.25 132.9,-123.45 Z M 163.65,-27.85 188.65,-27.85 188.65,-86.25 204.45,-102.05 213.65,-102.05 213.65,-127.05 202.7,-127.05 188.65,-141.1 188.65,-161.2 163.65,-161.2 Z M 175.05,-199.7 175.1,-200.3 175.3,-200.65 175.95,-201 176.55,-200.95 176.9,-200.75 177.25,-200.1 177.2,-199.5 177,-199.15 176.35,-198.8 175.75,-198.85 175.4,-199.05 Z "
       id="path2" />
  </g>
  <text
     xml:space="preserve"
     style="font-style:normal;font-variant:normal;font-weight:normal;font-stretch:normal;font-size:7.76111126px;line-height:1.25;font-family:Roboto;-inkscape-font-specification:Roboto;letter-spacing:0px;word-spacing:0px;fill:#000000;fill-opacity:1;stroke:#0000ff;stroke-width:0.2;stroke-opacity:1;stroke-miterlimit:4;stroke-dasharray:none"
     x="71.041664"
     y="-68.678566"
     id="text820"><tspan
       sodipodi:role="line"
       id="tspan818"
       x="71.041664"
       y="-68.678566"
       style="font-size:6.3499999px;stroke-width:0.2;stroke:#0000ff;stroke-opacity:1;stroke-miterlimit:4;stroke-dasharray:none">X1</tspan></text>
  <text
     xml:space="preserve"
     style="font-style:normal;font-variant:normal;font-weight:normal;font-stretch:normal;font-size:7.76111126px;line-height:1.25;font-family:Roboto;-inkscape-font-specification:Roboto;letter-spacing:0px;word-spacing:0px;fill:#000000;fill-opacity:1;stroke:#0000ff;stroke-width:0.2;stroke-opacity:1;stroke-miterlimit:4;stroke-dasharray:none"
     x="86.010628"
     y="-75.430519"
     id="text824"><tspan
       sodipodi:role="line"
       id="tspan822"
       x="86.010628"
       y="-75.430519"
       style="font-size:6.3499999px;stroke-width:0.2;stroke:#0000ff;stroke-opacity:1;stroke-miterlimit:4;stroke-dasharray:none">B</tspan></text>
  <text
     xml:space="preserve"
     style="font-style:normal;font-variant:normal;font-weight:normal;font-stretch:normal;font-size:7.76111126px;line-height:1.25;font-family:Roboto;-inkscape-font-specification:Roboto;letter-spacing:0px;word-spacing:0px;fill:#000000;fill-opacity:1;stroke:#0000ff;stroke-width:0.2;stroke-opacity:1;stroke-miterlimit:4;stroke-dasharray:none"
     x="85.985825"
     y="-62.810696"
     id="text828"><tspan
       sodipodi:role="line"
       id="tspan826"
       x="85.985825"
       y="-62.810696"
       style="font-size:6.3499999px;stroke-width:0.2;stroke:#0000ff;stroke-opacity:1;stroke-miterlimit:4;stroke-dasharray:none">A</tspan></text>
  <text
     xml:space="preserve"
     style="font-style:normal;font-variant:normal;font-weight:normal;font-stretch:normal;font-size:7.76111126px;line-height:1.25;font-family:Roboto;-inkscape-font-specification:Roboto;letter-spacing:0px;word-spacing:0px;fill:#000000;fill-opacity:1;stroke:#0000ff;stroke-width:0.2;stroke-opacity:1;stroke-miterlimit:4;stroke-dasharray:none"
     x="71.041664"
     y="-118.7361"
     id="text832"><tspan
       sodipodi:role="line"
       id="tspan830"
       x="71.041664"
       y="-118.7361"
       style="font-size:6.3499999px;stroke-width:0.2;stroke:#0000ff;stroke-opacity:1;stroke-miterlimit:4;stroke-dasharray:none">X2</tspan></text>
  <text
     id="text836"
     y="-125.17223"
     x="86.010628"
     style="font-style:normal;font-variant:normal;font-weight:normal;font-stretch:normal;font-size:7.76111126px;line-height:1.25;font-family:Roboto;-inkscape-font-specification:Roboto;letter-spacing:0px;word-spacing:0px;fill:#000000;fill-opacity:1;stroke:#0000ff;stroke-width:0.2;stroke-opacity:1;stroke-miterlimit:4;stroke-dasharray:none"
     xml:space="preserve"><tspan
       style="font-size:6.3499999px;stroke-width:0.2;stroke:#0000ff;stroke-opacity:1;stroke-miterlimit:4;stroke-dasharray:none"
       y="-125.17223"
       x="86.010628"
       id="tspan834"
       sodipodi:role="line">B</tspan></text>
  <text
     id="text840"
     y="-112.55238"
     x="85.985825"
     style="font-style:normal;font-variant:normal;font-weight:normal;font-stretch:normal;font-size:7.76111126px;line-height:1.25;font-family:Roboto;-inkscape-font-specification:Roboto;letter-spacing:0px;word-spacing:0px;fill:#000000;fill-opacity:1;stroke:#0000ff;stroke-width:0.2;stroke-opacity:1;stroke-miterlimit:4;stroke-dasharray:none"
     xml:space="preserve"><tspan
       style="font-size:6.3499999px;stroke-width:0.2;stroke:#0000ff;stroke-opacity:1;stroke-miterlimit:4;stroke-dasharray:none"
       y="-112.55238"
       x="85.985825"
       id="tspan838"
       sodipodi:role="line">A</tspan></text>
  <text
     xml:space="preserve"
     style="font-style:normal;font-variant:normal;font-weight:normal;font-stretch:normal;font-size:7.76111126px;line-height:1.25;font-family:Roboto;-inkscape-font-specification:Roboto;letter-spacing:0px;word-spacing:0px;fill:#000000;fill-opacity:1;stroke:#0000ff;stroke-width:0.2;stroke-opacity:1;stroke-miterlimit:4;stroke-dasharray:none"
     x="-90.911591"
     y="-52.03194"
     id="text844"
     transform="rotate(89.173886)"
     inkscape:transform-center-x="-1.2593092"
     inkscape:transform-center-y="4.7224096"><tspan
       sodipodi:role="line"
       id="tspan842"
       x="-90.911591"
       y="-52.03194"
       style="font-size:6.3499999px;stroke-width:0.2;stroke:#0000ff;stroke-opacity:1;stroke-miterlimit:4;stroke-dasharray:none">X4 B</tspan></text>
  <text
     xml:space="preserve"
     style="font-style:normal;font-variant:normal;font-weight:normal;font-stretch:normal;font-size:7.76111126px;line-height:1.25;font-family:Roboto;-inkscape-font-specification:Roboto;letter-spacing:0px;word-spacing:0px;fill:#000000;fill-opacity:1;stroke:#0000ff;stroke-width:0.2;stroke-opacity:1;stroke-miterlimit:4;stroke-dasharray:none"
     x="-118.81963"
     y="-40.109882"
     id="text848"
     transform="rotate(91.529705)"><tspan
       sodipodi:role="line"
       id="tspan846"
       x="-118.81963"
       y="-40.109882"
       style="font-size:6.3499999px;stroke-width:0.2;stroke:#0000ff;stroke-opacity:1;stroke-miterlimit:4;stroke-dasharray:none">X4 A</tspan></text>
  <text
     xml:space="preserve"
     style="font-style:normal;font-variant:normal;font-weight:normal;font-stretch:normal;font-size:7.76111126px;line-height:1.25;font-family:Roboto;-inkscape-font-specification:Roboto;letter-spacing:0px;word-spacing:0px;fill:#000000;fill-opacity:1;stroke:#0000ff;stroke-width:0.2;stroke-opacity:1;stroke-miterlimit:4;stroke-dasharray:none"
     x="53.726162"
     y="-204.05431"
     id="text852"><tspan
       sodipodi:role="line"
       id="tspan850"
       x="53.726162"
       y="-204.05431"
       style="font-size:6.3499999px;stroke-width:0.2;stroke:#0000ff;stroke-opacity:1;stroke-miterlimit:4;stroke-dasharray:none">X3</tspan></text>
  <text
     xml:space="preserve"
     style="font-style:normal;font-variant:normal;font-weight:normal;font-stretch:normal;font-size:7.76111126px;line-height:1.25;font-family:Roboto;-inkscape-font-specification:Roboto;letter-spacing:0px;word-spacing:0px;fill:#000000;fill-opacity:1;stroke:#0000ff;stroke-width:0.2;stroke-opacity:1;stroke-miterlimit:4;stroke-dasharray:none"
     x="61.596844"
     y="-191.14639"
     id="text856"><tspan
       sodipodi:role="line"
       id="tspan854"
       x="61.596844"
       y="-191.14639"
       style="font-size:6.3499999px;stroke-width:0.2;stroke:#0000ff;stroke-opacity:1;stroke-miterlimit:4;stroke-dasharray:none">A</tspan></text>
  <text
     xml:space="preserve"
     style="font-style:normal;font-variant:normal;font-weight:normal;font-stretch:normal;font-size:7.76111126px;line-height:1.25;font-family:Roboto;-inkscape-font-specification:Roboto;letter-spacing:0px;word-spacing:0px;fill:#000000;fill-opacity:1;stroke:#0000ff;stroke-width:0.2;stroke-opacity:1;stroke-miterlimit:4;stroke-dasharray:none"
     x="49.318581"
     y="-190.83156"
     id="text860"><tspan
       sodipodi:role="line"
       id="tspan858"
       x="49.318581"
       y="-190.83156"
       style="font-size:6.3499999px;stroke-width:0.2;stroke:#0000ff;stroke-opacity:1;stroke-miterlimit:4;stroke-dasharray:none">B</tspan></text>
</svg>
