<?xml version="1.0" encoding="UTF-8" standalone="no"?>
<!-- Created with Inkscape (http://www.inkscape.org/) -->

<svg
   xmlns:dc="http://purl.org/dc/elements/1.1/"
   xmlns:cc="http://creativecommons.org/ns#"
   xmlns:rdf="http://www.w3.org/1999/02/22-rdf-syntax-ns#"
   xmlns:svg="http://www.w3.org/2000/svg"
   xmlns="http://www.w3.org/2000/svg"
   xmlns:sodipodi="http://sodipodi.sourceforge.net/DTD/sodipodi-0.dtd"
   xmlns:inkscape="http://www.inkscape.org/namespaces/inkscape"
   width="610mm"
   height="30.699999mm"
   viewBox="0 0 610 30.699999"
   version="1.1"
   id="svg8"
   inkscape:version="0.92.3 (2405546, 2018-03-11)"
   sodipodi:docname="ruler-part1.svg">
  <defs
     id="defs2">
    <inkscape:path-effect
       effect="ruler"
       id="path-effect824"
       is_visible="true"
       unit="mm"
       mark_distance="5"
       mark_length="15"
       minor_mark_length="8"
       major_mark_steps="2"
       shift="0"
       offset="0"
       mark_dir="left"
       border_marks="both" />
    <inkscape:path-effect
       effect="ruler"
       id="path-effect820"
       is_visible="true"
       unit="mm"
       mark_distance="5"
       mark_length="15"
       minor_mark_length="8"
       major_mark_steps="2"
       shift="0"
       offset="0"
       mark_dir="left"
       border_marks="start" />
  </defs>
  <sodipodi:namedview
     id="base"
     pagecolor="#ffffff"
     bordercolor="#666666"
     borderopacity="1.0"
     inkscape:pageopacity="0.0"
     inkscape:pageshadow="2"
     inkscape:zoom="0.46413832"
     inkscape:cx="1562.6634"
     inkscape:cy="-38.149172"
     inkscape:document-units="mm"
     inkscape:current-layer="layer1"
     showgrid="false"
     inkscape:window-width="1920"
     inkscape:window-height="1017"
     inkscape:window-x="-8"
     inkscape:window-y="-8"
     inkscape:window-maximized="1"
     fit-margin-top="0"
     fit-margin-left="0"
     fit-margin-right="0"
     fit-margin-bottom="0" />
  <metadata
     id="metadata5">
    <rdf:RDF>
      <cc:Work
         rdf:about="">
        <dc:format>image/svg+xml</dc:format>
        <dc:type
           rdf:resource="http://purl.org/dc/dcmitype/StillImage" />
        <dc:title></dc:title>
      </cc:Work>
    </rdf:RDF>
  </metadata>
  <g
     inkscape:label="Calque 1"
     inkscape:groupmode="layer"
     id="layer1"
     transform="translate(-0.96907829,-267.46906)">
    <path
       style="fill:none;stroke:#0000ff;stroke-width:0.26471907px;stroke-linecap:butt;stroke-linejoin:miter;stroke-opacity:1"
       d="M 0.98519533,282.64058 H 610.98519 m -609.99999467,0 v -15 m 4.99999997,15 v -8 m 4.9999997,8 v -15 m 5,15 v -8 m 5,8 v -15 m 5,15 v -8 m 5,8 v -15 m 5,15 v -8 m 5,8 v -15 m 5,15 v -8 m 5,8 v -15 m 5,15 v -8 m 5,8 v -15 m 5,15 v -8 m 5,8 v -15 m 5,15 v -8 m 5,8 v -15 m 5,15 v -8 m 5,8 v -15 m 5,15 v -8 m 5.000005,8 v -15 m 5,15 v -8 m 5,8 v -15 m 5,15 v -8 m 5,8 v -15 m 5,15 v -8 m 5,8 v -15 m 5,15 v -8 m 5,8 v -15 m 5,15 v -8 m 5,8 v -15 m 5,15 v -8 m 5,8 v -15 m 5,15 v -8 m 5,8 v -15 m 5,15 v -8 m 5,8 v -15 m 5,15 v -8 m 5,8 v -15 m 5,15 v -8 m 5,8 v -15 m 5,15 v -8 m 5,8 v -15 m 5,15 v -8 m 5,8 v -15 m 5,15 v -8 m 5,8 v -15 m 5,15 v -8 m 5,8 v -15 m 5,15 v -8 m 5,8 v -15 m 5,15 v -8 m 5,8 v -15 m 5,15 v -8 m 5,8 v -15 m 5,15 v -8 m 5,8 v -15 m 5,15 v -8 m 5,8 v -15 m 5,15 v -8 m 5,8 v -15 m 5,15 v -8 m 5,8 v -15 m 5,15 v -8 m 5,8 v -15 m 5,15 v -8 m 5,8 v -15 m 5,15 v -8 m 5,8 v -15 m 5,15 v -8 m 5,8 v -15 m 5,15 v -8 m 5,8 v -15 m 5,15 v -8 m 5,8 v -15 m 5,15 v -8 m 5,8 v -15 m 5,15 v -8 m 5,8 v -15 m 5,15 v -8 m 5,8 v -15 m 5,15 v -8 m 5,8 v -15 m 5,15 v -8 m 5,8 v -15 m 5,15 v -8 m 5,8 v -15 m 5,15 v -8 m 5,8 v -15 m 5,15 v -8 m 5,8 v -15 m 5,15 v -8 m 5,8 v -15 m 5,15 v -8 m 5,8 v -15 m 5,15 v -8 m 5,8 v -15 m 5,15 v -8 m 5,8 v -15 m 5,15 v -8 m 5,8 v -15 m 5,15 v -8 m 5,8 v -15 m 5,15 v -8 m 5,8 v -15 m 5,15 v -8 m 5,8 v -15 m 5,15 v -8 m 5,8 v -15 m 5,15 v -8 m 5,8 v -15 m 5,15 v -8 m 5,8 v -15 m 5,15 v -8 m 5,8 v -15 m 5,15 v -8 m 5,8 v -15 m 5,15 v -8 m 5,8 v -15 m 5,15 v -8 m 5,8 v -15 m 5,15 v -8 m 4.99999,8 v -15"
       id="path822"
       inkscape:connector-curvature="0"
       inkscape:path-effect="#path-effect824"
       inkscape:original-d="M 0.98519533,282.64058 H 610.98519" />
    <path
       style="fill:none;stroke:#ff0000;stroke-width:0.26458332px;stroke-linecap:butt;stroke-linejoin:miter;stroke-opacity:1"
       d="m -604.06828,298.31059 v -11.20914 l 4.97282,4.87826 v -0.21239 -17.71778 -0.21291 l -4.97282,4.87825 v -11.20913"
       id="path826"
       inkscape:connector-curvature="0"
       sodipodi:nodetypes="cccccccc" />
    <path
       sodipodi:nodetypes="cccccccc"
       inkscape:connector-curvature="0"
       id="path841"
       d="m 1.4608853,298.31059 v -11.20914 l 4.9728172,4.87826 v -0.21239 -17.71778 -0.21291 l -4.9728172,4.87825 v -11.20913"
       style="fill:none;stroke:#ff0000;stroke-width:0.26458332px;stroke-linecap:butt;stroke-linejoin:miter;stroke-opacity:1" />
    <path
       style="fill:none;stroke:#ff0000;stroke-width:0.26458332px;stroke-linecap:butt;stroke-linejoin:miter;stroke-opacity:1"
       d="m 605.93172,298.31059 v -11.20914 l 4.97282,4.87826 v -0.21239 -17.71778 -0.21291 l -4.97282,4.87825 v -11.20913"
       id="path843"
       inkscape:connector-curvature="0"
       sodipodi:nodetypes="cccccccc" />
    <path
       style="fill:none;stroke:#0000ff;stroke-width:0.26458332px;stroke-linecap:butt;stroke-linejoin:miter;stroke-opacity:1"
       d="m 20.985195,282.64058 v 15.6776"
       id="path845"
       inkscape:connector-curvature="0" />
    <path
       style="fill:none;stroke:#0000ff;stroke-width:0.26458332px;stroke-linecap:butt;stroke-linejoin:miter;stroke-opacity:1"
       d="m 210.9852,282.64058 v 16.12498"
       id="path847"
       inkscape:connector-curvature="0" />
    <text
       xml:space="preserve"
       style="font-style:normal;font-variant:normal;font-weight:normal;font-stretch:normal;font-size:22.57777786px;line-height:1.25;font-family:Roboto;-inkscape-font-specification:Roboto;letter-spacing:0px;word-spacing:0px;fill:#000000;fill-opacity:1;stroke:#0000ff;stroke-width:0.26458332;stroke-opacity:1;"
       x="257.83804"
       y="293.91156"
       id="text851"><tspan
         sodipodi:role="line"
         id="tspan849"
         x="257.83804"
         y="293.91156"
         style="font-size:11.28888893px;fill:#000000;stroke:#0000ff;stroke-width:0.26458332;stroke-opacity:1;fill-opacity:1;">5</tspan></text>
    <text
       xml:space="preserve"
       style="font-style:normal;font-variant:normal;font-weight:normal;font-stretch:normal;font-size:22.57777786px;line-height:1.25;font-family:Roboto;-inkscape-font-specification:Roboto;letter-spacing:0px;word-spacing:0px;fill:#000000;fill-opacity:1;stroke:none;stroke-width:0.26458332"
       x="306.5546"
       y="290.78778"
       id="text855"><tspan
         sodipodi:role="line"
         id="tspan853"
         x="306.5546"
         y="310.54333"
         style="stroke-width:0.26458332" /></text>
    <text
       xml:space="preserve"
       style="font-style:normal;font-variant:normal;font-weight:normal;font-stretch:normal;font-size:11.28888893px;line-height:1.25;font-family:Roboto;-inkscape-font-specification:Roboto;letter-spacing:0px;word-spacing:0px;fill:#000000;fill-opacity:1;stroke:#0000ff;stroke-width:0.26458332;stroke-opacity:1;"
       x="304.23477"
       y="293.96945"
       id="text859"><tspan
         sodipodi:role="line"
         id="tspan857"
         x="304.23477"
         y="293.96945"
         style="fill:#000000;stroke:#0000ff;stroke-width:0.26458332;stroke-opacity:1;fill-opacity:1;">10</tspan></text>
    <text
       xml:space="preserve"
       style="font-style:normal;font-variant:normal;font-weight:normal;font-stretch:normal;font-size:11.28888893px;line-height:1.25;font-family:Roboto;-inkscape-font-specification:Roboto;letter-spacing:0px;word-spacing:0px;fill:#000000;fill-opacity:1;stroke:#0000ff;stroke-width:0.26458332;stroke-opacity:1;"
       x="355.06021"
       y="293.96945"
       id="text863"><tspan
         sodipodi:role="line"
         id="tspan861"
         x="355.06021"
         y="293.96945"
         style="fill:#000000;stroke:#0000ff;stroke-width:0.26458332;stroke-opacity:1;fill-opacity:1;">15</tspan></text>
    <text
       xml:space="preserve"
       style="font-style:normal;font-variant:normal;font-weight:normal;font-stretch:normal;font-size:11.28888893px;line-height:1.25;font-family:Roboto;-inkscape-font-specification:Roboto;letter-spacing:0px;word-spacing:0px;fill:#000000;fill-opacity:1;stroke:#0000ff;stroke-width:0.26458332;stroke-opacity:1;"
       x="405.88571"
       y="293.96945"
       id="text867"><tspan
         sodipodi:role="line"
         id="tspan865"
         x="405.88571"
         y="293.96945"
         style="fill:#000000;stroke:#0000ff;stroke-width:0.26458332;stroke-opacity:1;fill-opacity:1;">20</tspan></text>
    <text
       xml:space="preserve"
       style="font-style:normal;font-variant:normal;font-weight:normal;font-stretch:normal;font-size:11.28888893px;line-height:1.25;font-family:Roboto;-inkscape-font-specification:Roboto;letter-spacing:0px;word-spacing:0px;fill:#000000;fill-opacity:1;stroke:#0000ff;stroke-width:0.26458332;stroke-opacity:1;"
       x="455.86758"
       y="293.96945"
       id="text871"><tspan
         sodipodi:role="line"
         id="tspan869"
         x="455.86758"
         y="293.96945"
         style="fill:#000000;stroke:#0000ff;stroke-width:0.26458332;stroke-opacity:1;fill-opacity:1;">25</tspan></text>
    <text
       xml:space="preserve"
       style="font-style:normal;font-variant:normal;font-weight:normal;font-stretch:normal;font-size:11.28888893px;line-height:1.25;font-family:Roboto;-inkscape-font-specification:Roboto;letter-spacing:0px;word-spacing:0px;fill:#000000;fill-opacity:1;stroke:#0000ff;stroke-width:0.26458332;stroke-opacity:1;"
       x="505.84946"
       y="293.96945"
       id="text875"><tspan
         sodipodi:role="line"
         id="tspan873"
         x="505.84946"
         y="293.96945"
         style="fill:#000000;stroke:#0000ff;stroke-width:0.26458332;stroke-opacity:1;fill-opacity:1;">30</tspan></text>
    <text
       xml:space="preserve"
       style="font-style:normal;font-variant:normal;font-weight:normal;font-stretch:normal;font-size:11.28888893px;line-height:1.25;font-family:Roboto;-inkscape-font-specification:Roboto;letter-spacing:0px;word-spacing:0px;fill:#000000;fill-opacity:1;stroke:#0000ff;stroke-width:0.26458332;stroke-opacity:1;"
       x="556.88586"
       y="293.96945"
       id="text879"><tspan
         sodipodi:role="line"
         id="tspan877"
         x="556.88586"
         y="293.96945"
         style="fill:#000000;stroke:#0000ff;stroke-width:0.26458332;stroke-opacity:1;fill-opacity:1;">35</tspan></text>
  </g>
</svg>
